<svg width="16" height="15" viewBox="0 0 16 15" fill="none" xmlns="http://www.w3.org/2000/svg">
<path d="M12.6875 2.34317H3.3125C2.53585 2.34317 1.90625 2.97277 1.90625 3.74942V12.1869C1.90625 12.9636 2.53585 13.5932 3.3125 13.5932H12.6875C13.4641 13.5932 14.0937 12.9636 14.0937 12.1869V3.74942C14.0937 2.97277 13.4641 2.34317 12.6875 2.34317Z" fill="white" stroke="#2D3748" stroke-width="0.75" stroke-linejoin="round"/>
<path d="M12.1549 2.34317H3.84512C2.77607 2.34317 1.90625 3.22647 1.90625 4.31192V6.09317H2.375C2.375 5.62442 2.84375 5.15567 3.3125 5.15567H12.6875C13.1562 5.15567 13.625 5.62442 13.625 6.09317H14.0937V4.31192C14.0937 3.22647 13.2239 2.34317 12.1549 2.34317Z" fill="#2D3748"/>
<path d="M9.17163 7.49939C9.55996 7.49939 9.87475 7.18459 9.87475 6.79626C9.87475 6.40794 9.55996 6.09314 9.17163 6.09314C8.78331 6.09314 8.46851 6.40794 8.46851 6.79626C8.46851 7.18459 8.78331 7.49939 9.17163 7.49939Z" fill="#2D3748"/>
<path d="M11.5156 7.49939C11.904 7.49939 12.2187 7.18459 12.2187 6.79626C12.2187 6.40794 11.904 6.09314 11.5156 6.09314C11.1273 6.09314 10.8125 6.40794 10.8125 6.79626C10.8125 7.18459 11.1273 7.49939 11.5156 7.49939Z" fill="#2D3748"/>
<path d="M9.17163 9.84271C9.55996 9.84271 9.87475 9.52791 9.87475 9.13959C9.87475 8.75126 9.55996 8.43646 9.17163 8.43646C8.78331 8.43646 8.46851 8.75126 8.46851 9.13959C8.46851 9.52791 8.78331 9.84271 9.17163 9.84271Z" fill="#2D3748"/>
<path d="M11.5156 9.84271C11.904 9.84271 12.2187 9.52791 12.2187 9.13959C12.2187 8.75126 11.904 8.43646 11.5156 8.43646C11.1273 8.43646 10.8125 8.75126 10.8125 9.13959C10.8125 9.52791 11.1273 9.84271 11.5156 9.84271Z" fill="#2D3748"/>
<path d="M4.48437 9.84271C4.8727 9.84271 5.1875 9.52791 5.1875 9.13959C5.1875 8.75126 4.8727 8.43646 4.48437 8.43646C4.09605 8.43646 3.78125 8.75126 3.78125 9.13959C3.78125 9.52791 4.09605 9.84271 4.48437 9.84271Z" fill="#2D3748"/>
<path d="M6.82812 9.84271C7.21645 9.84271 7.53125 9.52791 7.53125 9.13959C7.53125 8.75126 7.21645 8.43646 6.82812 8.43646C6.4398 8.43646 6.125 8.75126 6.125 9.13959C6.125 9.52791 6.4398 9.84271 6.82812 9.84271Z" fill="#2D3748"/>
<path d="M4.48437 12.1869C4.8727 12.1869 5.1875 11.8721 5.1875 11.4838C5.1875 11.0955 4.8727 10.7807 4.48437 10.7807C4.09605 10.7807 3.78125 11.0955 3.78125 11.4838C3.78125 11.8721 4.09605 12.1869 4.48437 12.1869Z" fill="#2D3748"/>
<path d="M6.82812 12.1869C7.21645 12.1869 7.53125 11.8721 7.53125 11.4838C7.53125 11.0955 7.21645 10.7807 6.82812 10.7807C6.4398 10.7807 6.125 11.0955 6.125 11.4838C6.125 11.8721 6.4398 12.1869 6.82812 12.1869Z" fill="#2D3748"/>
<path d="M9.17163 12.1869C9.55996 12.1869 9.87475 11.8721 9.87475 11.4838C9.87475 11.0955 9.55996 10.7807 9.17163 10.7807C8.78331 10.7807 8.46851 11.0955 8.46851 11.4838C8.46851 11.8721 8.78331 12.1869 9.17163 12.1869Z" fill="#2D3748"/>
<path d="M4.24976 1.40558V2.34308" stroke="#2D3748" stroke-width="0.75" stroke-linecap="round" stroke-linejoin="round"/>
<path d="M11.75 1.40558V2.34308" stroke="#2D3748" stroke-width="0.75" stroke-linecap="round" stroke-linejoin="round"/>
</svg>
