<svg width="13" height="12" viewBox="0 0 13 12" fill="none" xmlns="http://www.w3.org/2000/svg">
<path d="M6.66264 0.4676C6.61903 0.425875 6.56099 0.402588 6.50063 0.402588C6.44027 0.402588 6.38224 0.425875 6.33862 0.4676L0.945068 5.62004C0.922163 5.64195 0.903939 5.66828 0.891502 5.69744C0.879064 5.72659 0.872669 5.75797 0.872705 5.78967L0.871826 10.6254C0.871826 10.874 0.970598 11.1125 1.14641 11.2883C1.32223 11.4641 1.56069 11.5629 1.80933 11.5629H4.62475C4.74907 11.5629 4.8683 11.5135 4.95621 11.4256C5.04412 11.3377 5.0935 11.2185 5.0935 11.0942V7.10978C5.0935 7.04762 5.1182 6.98801 5.16215 6.94406C5.2061 6.9001 5.26572 6.87541 5.32788 6.87541H7.67163C7.73379 6.87541 7.7934 6.9001 7.83736 6.94406C7.88131 6.98801 7.906 7.04762 7.906 7.10978V11.0942C7.906 11.2185 7.95539 11.3377 8.0433 11.4256C8.1312 11.5135 8.25043 11.5629 8.37475 11.5629H11.189C11.4377 11.5629 11.6761 11.4641 11.8519 11.2883C12.0277 11.1125 12.1265 10.874 12.1265 10.6254V5.78967C12.1265 5.75797 12.1202 5.72659 12.1077 5.69744C12.0953 5.66828 12.0771 5.64195 12.0541 5.62004L6.66264 0.4676Z" fill="white"/>
</svg>
