<svg width="19" height="24" viewBox="0 0 19 24" fill="none" xmlns="http://www.w3.org/2000/svg">
<path d="M16.1787 2.53224C15.1416 1.35738 13.2646 0.854065 10.8634 0.854065H3.89481C3.40401 0.854065 2.9869 1.20861 2.90903 1.68829L0.00737232 19.9453C-0.0496329 20.3054 0.231222 20.6307 0.59828 20.6307H4.90009L5.98041 13.8318L5.94704 14.0459C6.02351 13.5662 6.43923 13.2117 6.93003 13.2117H8.97388C12.9907 13.2117 16.1343 11.5933 17.0533 6.91191C17.0811 6.77288 17.1242 6.50592 17.1242 6.50592C17.3856 4.77352 17.1228 3.59866 16.1787 2.53224Z" fill="white"/>
<path d="M18.2128 7.39301C17.2146 12.0021 14.0292 14.4408 8.97383 14.4408H7.14132L5.77319 23.1H8.74581C9.17543 23.1 9.5411 22.79 9.60784 22.3687L9.6426 22.1852L10.3267 17.8875L10.3712 17.6512C10.4379 17.2299 10.8036 16.9198 11.2318 16.9198H11.7754C15.2889 16.9198 18.0391 15.5044 18.8427 11.4098C19.1653 9.76637 19.0095 8.38851 18.2128 7.39301Z" fill="white"/>
</svg>
