<svg width="16" height="15" viewBox="0 0 16 15" fill="none" xmlns="http://www.w3.org/2000/svg">
<g clip-path="url(#clip0_51_3)">
<path d="M13.0391 6.56262H8.9375C8.56454 6.56262 8.20685 6.41446 7.94313 6.15074C7.67941 5.88702 7.53125 5.52933 7.53125 5.15637V1.05481C7.53125 1.02373 7.5189 0.993922 7.49693 0.971946C7.47495 0.949969 7.44514 0.937622 7.41406 0.937622H4.71875C4.22147 0.937622 3.74456 1.13517 3.39292 1.4868C3.04129 1.83843 2.84375 2.31534 2.84375 2.81262V12.1876C2.84375 12.6849 3.04129 13.1618 3.39292 13.5134C3.74456 13.8651 4.22147 14.0626 4.71875 14.0626H11.2812C11.7785 14.0626 12.2554 13.8651 12.6071 13.5134C12.9587 13.1618 13.1562 12.6849 13.1562 12.1876V6.67981C13.1562 6.64873 13.1439 6.61892 13.1219 6.59694C13.0999 6.57497 13.0701 6.56262 13.0391 6.56262ZM10.3437 11.2501H5.65625C5.53193 11.2501 5.4127 11.2007 5.32479 11.1128C5.23689 11.0249 5.1875 10.9057 5.1875 10.7814C5.1875 10.657 5.23689 10.5378 5.32479 10.4499C5.4127 10.362 5.53193 10.3126 5.65625 10.3126H10.3437C10.4681 10.3126 10.5873 10.362 10.6752 10.4499C10.7631 10.5378 10.8125 10.657 10.8125 10.7814C10.8125 10.9057 10.7631 11.0249 10.6752 11.1128C10.5873 11.2007 10.4681 11.2501 10.3437 11.2501ZM10.3437 8.90637H5.65625C5.53193 8.90637 5.4127 8.85698 5.32479 8.76908C5.23689 8.68117 5.1875 8.56194 5.1875 8.43762C5.1875 8.3133 5.23689 8.19407 5.32479 8.10616C5.4127 8.01826 5.53193 7.96887 5.65625 7.96887H10.3437C10.4681 7.96887 10.5873 8.01826 10.6752 8.10616C10.7631 8.19407 10.8125 8.3133 10.8125 8.43762C10.8125 8.56194 10.7631 8.68117 10.6752 8.76908C10.5873 8.85698 10.4681 8.90637 10.3437 8.90637Z" fill="#2D3748"/>
<path d="M12.7818 5.526L8.56865 1.31282C8.56046 1.30467 8.55004 1.29913 8.53871 1.29689C8.52737 1.29465 8.51563 1.29581 8.50495 1.30022C8.49428 1.30464 8.48514 1.31211 8.4787 1.3217C8.47226 1.33129 8.4688 1.34257 8.46875 1.35412V5.15715C8.46875 5.28147 8.51814 5.4007 8.60604 5.48861C8.69395 5.57652 8.81318 5.6259 8.9375 5.6259H12.7405C12.7521 5.62585 12.7634 5.62239 12.773 5.61595C12.7825 5.60951 12.79 5.60037 12.7944 5.5897C12.7988 5.57902 12.8 5.56728 12.7978 5.55594C12.7955 5.54461 12.79 5.53419 12.7818 5.526V5.526Z" fill="#2D3748"/>
</g>
<defs>
<clipPath id="clip0_51_3">
<rect width="15" height="15" fill="white" transform="translate(0.5)"/>
</clipPath>
</defs>
</svg>
