<svg width="27" height="26" viewBox="0 0 27 26" fill="none" xmlns="http://www.w3.org/2000/svg">
<path d="M5.34935 5.27879H21.5993C21.7892 5.2787 21.9788 5.29075 22.1671 5.31485C22.1033 4.86684 21.9494 4.4364 21.7147 4.04948C21.48 3.66255 21.1694 3.32716 20.8016 3.06351C20.4338 2.79987 20.0165 2.61344 19.5747 2.51547C19.1329 2.41749 18.6758 2.41 18.231 2.49344L4.86693 4.77504H4.8517C4.01283 4.93546 3.26685 5.41008 2.76611 6.10196C3.52052 5.56536 4.42358 5.2776 5.34935 5.27879Z" fill="white"/>
<path d="M21.5996 6.49982H5.34961C4.48794 6.50076 3.66184 6.84347 3.05255 7.45276C2.44326 8.06205 2.10055 8.88815 2.09961 9.74982V19.4998C2.10055 20.3615 2.44326 21.1876 3.05255 21.7969C3.66184 22.4062 4.48794 22.7489 5.34961 22.7498H21.5996C22.4613 22.7489 23.2874 22.4062 23.8967 21.7969C24.5059 21.1876 24.8487 20.3615 24.8496 19.4998V9.74982C24.8487 8.88815 24.5059 8.06205 23.8967 7.45276C23.2874 6.84347 22.4613 6.50076 21.5996 6.49982ZM19.1875 16.2498C18.8661 16.2498 18.5519 16.1545 18.2847 15.976C18.0175 15.7974 17.8092 15.5436 17.6862 15.2467C17.5632 14.9497 17.531 14.623 17.5937 14.3078C17.6564 13.9926 17.8112 13.703 18.0384 13.4758C18.2657 13.2485 18.5553 13.0937 18.8705 13.031C19.1857 12.9683 19.5124 13.0005 19.8094 13.1235C20.1063 13.2465 20.3601 13.4548 20.5386 13.722C20.7172 13.9892 20.8125 14.3034 20.8125 14.6248C20.8125 15.0558 20.6413 15.4691 20.3365 15.7739C20.0318 16.0786 19.6185 16.2498 19.1875 16.2498Z" fill="white"/>
<path d="M2.125 13.1749V8.12219C2.125 7.02176 2.73437 5.17688 4.84941 4.77723C6.64453 4.44055 8.42187 4.44055 8.42187 4.44055C8.42187 4.44055 9.58984 5.25305 8.625 5.25305C7.66015 5.25305 7.68555 6.49719 8.625 6.49719C9.56445 6.49719 8.625 7.69055 8.625 7.69055L4.8418 11.9816L2.125 13.1749Z" fill="white"/>
</svg>
